name rise32.9588peak41.5061fall63.4684.mot
datacolumns 19
datarows 20
range 14.81828200000000 14.84994100000000
endheader
time	ground_force1_vx	ground_force1_vy	ground_force1_vz	ground_force1_px	ground_force1_py	ground_force1_pz	ground_force2_vx	ground_force2_vy	ground_force2_vz	ground_force2_px	ground_force2_py	ground_force2_pz	ground_torque1_x	ground_torque1_y	ground_torque1_z	ground_torque2_x	ground_torque2_y	ground_torque2_z	
14.81828200000000	-8.78459000000000	41.26788800000000	-8.85641300000000	0.26350200000000	0.00000000000000	0.09950500000000	-40.35476000000000	784.50871900000004	-51.60011100000000	0.08175800000000	0.00000000000000	-0.07727900000000	0.00000000000000	-4.28754100000000	0.00000000000000	0.00000000000000	-12.59669500000000	0.00000000000000	
14.81994100000000	-9.68673600000000	48.47773100000000	-9.95863500000000	0.26751800000000	0.00000000000000	0.10052900000000	-40.56280600000000	781.91249800000003	-51.27101100000000	0.08117600000000	0.00000000000000	-0.07721300000000	0.00000000000000	-4.88213100000000	0.00000000000000	0.00000000000000	-12.50893200000000	0.00000000000000	
14.82160800000000	-10.43667600000000	55.80726600000000	-10.95961000000000	0.27117200000000	0.00000000000000	0.10144500000000	-40.79469500000000	779.21003399999995	-50.92344600000000	0.08059400000000	0.00000000000000	-0.07714300000000	0.00000000000000	-5.44044000000000	0.00000000000000	0.00000000000000	-12.42533400000000	0.00000000000000	
14.82327800000000	-11.01052500000000	63.16447200000000	-11.83571300000000	0.27452600000000	0.00000000000000	0.10227100000000	-41.05107800000000	776.40001500000005	-50.55753500000000	0.08001400000000	0.00000000000000	-0.07707000000000	0.00000000000000	-5.95020400000000	0.00000000000000	0.00000000000000	-12.34605800000000	0.00000000000000	
14.82494700000000	-11.39372200000000	70.47907900000000	-12.57119900000000	0.27762900000000	0.00000000000000	0.10302000000000	-41.33249200000000	773.48103800000001	-50.17341000000000	0.07943500000000	0.00000000000000	-0.07699300000000	0.00000000000000	-6.40277600000000	0.00000000000000	0.00000000000000	-12.27123600000000	0.00000000000000	
14.82660900000000	-11.58094700000000	77.70483500000000	-13.15830800000000	0.28051900000000	0.00000000000000	0.10370400000000	-41.63935300000000	770.45160999999996	-49.77121200000000	0.07885800000000	0.00000000000000	-0.07691200000000	0.00000000000000	-6.79326800000000	0.00000000000000	0.00000000000000	-12.20098400000000	0.00000000000000	
14.82827600000000	-11.57528900000000	84.81939800000001	-13.59670900000000	0.28322900000000	0.00000000000000	0.10433200000000	-41.97195300000000	767.31015100000002	-49.35109100000000	0.07828300000000	0.00000000000000	-0.07682800000000	0.00000000000000	-7.12037100000000	0.00000000000000	0.00000000000000	-12.13539200000000	0.00000000000000	
14.82994800000000	-11.38688700000000	91.82228900000000	-13.89242200000000	0.28578200000000	0.00000000000000	0.10491100000000	-42.33045600000000	764.05499599999996	-48.91320900000000	0.07771100000000	0.00000000000000	-0.07674100000000	0.00000000000000	-7.38590900000000	0.00000000000000	0.00000000000000	-12.07452800000000	0.00000000000000	
14.83160900000000	-11.03120900000000	98.73138200000000	-14.05641600000000	0.28820000000000	0.00000000000000	0.10544700000000	-42.71489500000000	760.68440099999998	-48.45773500000000	0.07714300000000	0.00000000000000	-0.07664900000000	0.00000000000000	-7.59421000000000	0.00000000000000	0.00000000000000	-12.01843600000000	0.00000000000000	
14.83327800000000	-10.52720900000000	105.57849700000000	-14.10303800000000	0.29050000000000	0.00000000000000	0.10594600000000	-43.12516600000000	757.19655000000000	-47.98484700000000	0.07657800000000	0.00000000000000	-0.07655400000000	0.00000000000000	-7.75138700000000	0.00000000000000	0.00000000000000	-11.96713500000000	0.00000000000000	
14.83494500000000	-9.89551600000000	112.40460899999999	-14.04844500000000	0.29269600000000	0.00000000000000	0.10641200000000	-43.56102700000000	753.58955400000002	-47.49473300000000	0.07601700000000	0.00000000000000	-0.07645600000000	0.00000000000000	-7.86458300000000	0.00000000000000	0.00000000000000	-11.92062100000000	0.00000000000000	
14.83661000000000	-9.15680100000000	119.25512900000000	-13.90916000000000	0.29479900000000	0.00000000000000	0.10684900000000	-44.02209600000000	749.86146399999996	-46.98759100000000	0.07546100000000	0.00000000000000	-0.07635300000000	0.00000000000000	-7.94127800000000	0.00000000000000	0.00000000000000	-11.87886400000000	0.00000000000000	
14.83827400000000	-8.33042100000000	126.17562500000000	-13.70084500000000	0.29682000000000	0.00000000000000	0.10725900000000	-44.50784900000000	746.01027799999997	-46.46362700000000	0.07491100000000	0.00000000000000	-0.07624700000000	0.00000000000000	-7.98867100000000	0.00000000000000	0.00000000000000	-11.84180800000000	0.00000000000000	
14.83994000000000	-7.43340500000000	133.20823799999999	-13.43735800000000	0.29876400000000	0.00000000000000	0.10764600000000	-45.01761900000000	742.03394600000001	-45.92305600000000	0.07436600000000	0.00000000000000	-0.07613800000000	0.00000000000000	-8.01319800000000	0.00000000000000	0.00000000000000	-11.80937200000000	0.00000000000000	
14.84160900000000	-6.47978800000000	140.38895400000001	-13.13010700000000	0.30064100000000	0.00000000000000	0.10801100000000	-45.55059600000000	737.93038000000001	-45.36610700000000	0.07382800000000	0.00000000000000	-0.07602400000000	0.00000000000000	-8.02019000000000	0.00000000000000	0.00000000000000	-11.78145100000000	0.00000000000000	
14.84327400000000	-5.48029600000000	147.74579000000000	-12.78770600000000	0.30245400000000	0.00000000000000	0.10835800000000	-46.10582600000000	733.69746699999996	-44.79301600000000	0.07329600000000	0.00000000000000	-0.07590700000000	0.00000000000000	-8.01366800000000	0.00000000000000	0.00000000000000	-11.75791300000000	0.00000000000000	
14.84494500000000	-4.44233700000000	155.29785100000001	-12.41590600000000	0.30420800000000	0.00000000000000	0.10868600000000	-46.68221200000000	729.33307700000000	-44.20403300000000	0.07277200000000	0.00000000000000	-0.07578600000000	0.00000000000000	-7.99628000000000	0.00000000000000	0.00000000000000	-11.73860000000000	0.00000000000000	
14.84661300000000	-3.37024200000000	163.05519799999999	-12.01774800000000	0.30590800000000	0.00000000000000	0.10899900000000	-47.27851700000000	724.83507599999996	-43.59942100000000	0.07225600000000	0.00000000000000	-0.07566100000000	0.00000000000000	-7.96935100000000	0.00000000000000	0.00000000000000	-11.72333200000000	0.00000000000000	
14.84827400000000	-2.26569300000000	171.01936699999999	-11.59389600000000	0.30755500000000	0.00000000000000	0.10929700000000	-47.89336500000000	720.20133499999997	-42.97945300000000	0.07174800000000	0.00000000000000	-0.07553200000000	0.00000000000000	-7.93301600000000	0.00000000000000	0.00000000000000	-11.71190400000000	0.00000000000000	
14.84994100000000	-1.12827800000000	179.18438699999999	-11.14308700000000	0.30915200000000	0.00000000000000	0.10958200000000	-48.52524100000000	715.42975200000001	-42.34441900000000	0.07124900000000	0.00000000000000	-0.07540000000000	0.00000000000000	-7.88643200000000	0.00000000000000	0.00000000000000	-11.70408500000000	0.00000000000000	
